<?xml version="1.0" encoding="UTF-8" standalone="no"?>
<!-- Created with Inkscape (http://www.inkscape.org/) -->

<svg
   version="1.1"
   id="svg1318"
   width="800"
   height="800"
   viewBox="0 0 800 800"
   sodipodi:docname="cloudy-sky-publicdomain.svg"
   inkscape:version="1.2 (dc2aedaf03, 2022-05-15)"
   xmlns:inkscape="http://www.inkscape.org/namespaces/inkscape"
   xmlns:sodipodi="http://sodipodi.sourceforge.net/DTD/sodipodi-0.dtd"
   xmlns="http://www.w3.org/2000/svg"
   xmlns:svg="http://www.w3.org/2000/svg">
  <defs
     id="defs1322">
    <clipPath
       clipPathUnits="userSpaceOnUse"
       id="clipPath1338">
      <path
         d="M 0,600 H 600 V 0 H 0 Z"
         id="path1336" />
    </clipPath>
  </defs>
  <sodipodi:namedview
     id="namedview1320"
     pagecolor="#ffffff"
     bordercolor="#000000"
     borderopacity="0.25"
     inkscape:showpageshadow="2"
     inkscape:pageopacity="0.0"
     inkscape:pagecheckerboard="0"
     inkscape:deskcolor="#d1d1d1"
     showgrid="false"
     inkscape:zoom="1.04625"
     inkscape:cx="400"
     inkscape:cy="400.4779"
     inkscape:window-width="1920"
     inkscape:window-height="1017"
     inkscape:window-x="-8"
     inkscape:window-y="-8"
     inkscape:window-maximized="1"
     inkscape:current-layer="g1326">
    <inkscape:page
       x="0"
       y="0"
       id="page1324"
       width="800"
       height="800" />
  </sodipodi:namedview>
  <g
     id="g1326"
     inkscape:groupmode="layer"
     inkscape:label="Page 1"
     transform="matrix(1.3333333,0,0,-1.3333333,0,800)">
    <g
       id="g1328"
       transform="translate(0.6111,599.4783)">
      <path
         d="m 0,0 v -453.478 l 599.389,-16.549 V 0 Z"
         style="fill:#407bc7;fill-opacity:1;fill-rule:nonzero;stroke:none"
         id="path1330" />
    </g>
    <g
       id="g1332">
      <g
         id="g1334"
         clip-path="url(#clipPath1338)">
        <g
           id="g1340"
           transform="translate(601.4756,506.1602)">
          <path
             d="m 0,0 v -251.494 c -8.965,-5.984 -19.658,-9.462 -31.148,-9.462 -12.578,0 -24.204,4.171 -33.647,11.231 -4.393,-1.847 -9.201,-2.868 -14.242,-2.868 -0.937,0 -1.865,0.035 -2.784,0.106 -7.6,-4.148 -16.266,-6.501 -25.471,-6.501 -7.595,0 -14.827,1.603 -21.392,4.492 -8.271,-11.662 -21.67,-19.243 -36.795,-19.243 -0.521,0 -1.036,0.01 -1.552,0.028 1.929,-5.29 2.988,-11.017 2.988,-16.997 0,-26.752 -21.121,-48.439 -47.172,-48.439 -16.274,0 -30.625,8.463 -39.103,21.338 -11.832,-26.519 -37.905,-44.941 -68.17,-44.941 -29.382,0 -54.809,17.361 -67.095,42.639 -2.614,-0.551 -5.32,-0.84 -8.093,-0.84 -22.084,0 -39.988,18.385 -39.988,41.061 0,1.247 0.057,2.478 0.164,3.697 -0.214,-0.002 -0.428,-0.005 -0.642,-0.005 -16.099,0 -30.77,6.275 -41.82,16.571 -3.16,-0.864 -6.478,-1.329 -9.902,-1.329 -2.567,0 -5.074,0.261 -7.499,0.756 -10.125,-11.78 -23.969,-20.107 -39.648,-23.042 -8.567,-31.642 -35.249,-55.538 -67.854,-59.165 V 22.611 c 3.094,0.762 6.323,1.168 9.644,1.168 22.745,0 41.185,-18.934 41.185,-42.292 0,-9.125 -2.816,-17.575 -7.602,-24.485 7.369,-4.421 12.997,-11.566 15.573,-20.092 3.404,1.459 7.139,2.265 11.057,2.265 15.869,0 28.734,-13.21 28.734,-29.506 0,-1.036 -0.052,-2.058 -0.154,-3.066 2.286,-0.482 4.517,-1.115 6.685,-1.889 4.7,15.969 19.136,27.597 36.22,27.597 20.893,0 37.832,-17.394 37.832,-38.85 0,-0.341 -0.004,-0.681 -0.013,-1.02 14.558,-2.442 25.669,-15.416 25.669,-31.057 0,-7.058 -2.261,-13.573 -6.083,-18.822 7.361,-4.542 13.731,-10.602 18.701,-17.759 3.068,0.838 6.291,1.286 9.617,1.286 8.193,0 15.77,-2.711 21.927,-7.305 5.485,25.012 27.245,43.695 53.259,43.695 28.08,0 51.203,-21.768 54.251,-49.766 11.205,-1.061 19.979,-10.739 19.979,-22.524 0,-2.992 -0.567,-5.848 -1.594,-8.462 0.68,0.068 1.373,0.103 2.073,0.103 4.957,0 9.513,-1.758 13.112,-4.699 1.601,18.661 13.883,34.171 30.53,40.042 -8.567,7.964 -13.95,19.473 -13.95,32.275 0,24.036 18.976,43.521 42.382,43.521 10.627,0 20.34,-4.016 27.778,-10.65 6.872,13.124 20.107,22.209 35.465,22.901 5.008,21.953 20.628,39.711 40.997,47.261 -0.05,0.884 -0.079,1.775 -0.079,2.671 0,24.865 19.631,45.021 43.844,45.021 C -2.538,0.173 -1.264,0.112 0,0"
             style="fill:#4888cf;fill-opacity:1;fill-rule:evenodd;stroke:none"
             id="path1342" />
        </g>
        <g
           id="g1344"
           transform="translate(601.4756,355.3193)">
          <path
             d="m 0,0 v -179.423 c -7.767,-10.757 -20.22,-17.732 -34.259,-17.732 -23.306,0 -42.238,19.209 -42.615,43.046 -5.522,-1.648 -11.355,-2.531 -17.394,-2.531 -0.746,0 -1.484,0.017 -2.223,0.044 1.534,-4.47 2.366,-9.279 2.366,-14.288 0,-23.747 -18.744,-42.994 -41.867,-42.994 -13.7,0 -25.862,6.758 -33.501,17.204 -4.423,-0.958 -9.006,-1.466 -13.706,-1.466 -2.122,0 -4.22,0.104 -6.291,0.306 -10.478,-14.582 -27.324,-24.041 -46.324,-24.041 -8.834,0 -17.204,2.048 -24.684,5.702 -3.748,-1.063 -7.698,-1.636 -11.776,-1.636 -0.824,0 -1.642,0.024 -2.454,0.07 0.352,-2.594 0.538,-5.244 0.538,-7.938 0,-31.506 -24.872,-57.045 -55.552,-57.045 -15.066,0 -28.725,6.16 -38.732,16.159 -7.623,-4.041 -16.272,-6.324 -25.441,-6.324 -27.717,0 -50.69,20.846 -54.87,48.101 -6.604,-3.704 -14.179,-5.809 -22.233,-5.809 -12.792,0 -24.374,5.309 -32.775,13.899 -17.253,-19.418 -51.143,-31.603 -69.71,-31.603 -18.565,0 -18.7,47.678 -27.362,50.371 V 79.039 c 12.205,-3.598 21.137,-15.145 21.137,-28.836 0,-5.584 -1.488,-10.811 -4.076,-15.288 0.556,0.028 1.118,0.043 1.681,0.043 8.903,0 16.983,-3.616 22.925,-9.495 7.119,11.613 19.714,19.33 34.065,19.33 22.216,0 40.227,-18.494 40.227,-41.307 0,-5.342 -0.987,-10.447 -2.785,-15.134 1.852,0.25 3.74,0.38 5.659,0.38 23.804,0 43.101,-19.815 43.101,-44.259 0,-8.92 -2.573,-17.225 -6.995,-24.175 2.278,0.374 4.614,0.571 6.995,0.571 20.857,0 38.329,-14.885 42.894,-34.874 3.927,1.39 8.141,2.148 12.528,2.148 8.065,0 15.548,-2.554 21.73,-6.912 7.39,19.732 26.022,33.737 47.841,33.737 19.998,0 37.318,-11.764 45.759,-28.918 7.007,4.905 15.125,8.261 23.886,9.59 0.117,0.29 0.234,0.578 0.356,0.865 -4.554,6.061 -7.266,13.658 -7.266,21.905 0,19.825 15.652,35.899 34.959,35.899 12.476,0 23.425,-6.712 29.612,-16.811 1.136,0.061 2.28,0.09 3.433,0.09 11.07,0 21.501,-2.799 30.667,-7.737 1.786,4.86 4.134,9.439 6.959,13.653 -2.683,4.132 -4.247,9.096 -4.247,14.435 0,14.395 11.363,26.065 25.381,26.065 9.508,0 17.795,-5.37 22.143,-13.316 2.627,0.348 5.306,0.529 8.028,0.529 11.548,0 22.361,-3.233 31.63,-8.859 -1.77,4.415 -2.75,9.252 -2.75,14.324 0,20.778 16.404,37.623 36.635,37.623 C -17.095,14.305 -6.713,8.712 0,0"
             style="fill:#62a7e0;fill-opacity:1;fill-rule:evenodd;stroke:none"
             id="path1346" />
        </g>
        <g
           id="g1348"
           transform="translate(184.5669,119.0557)">
          <path
             d="M 0,0 C 0.091,0.204 0.184,0.406 0.277,0.61 -0.259,1.154 -0.777,1.715 -1.275,2.298 -1.446,2.109 -1.62,1.924 -1.795,1.74 -1.181,1.175 -0.583,0.595 0,0 M 416.909,84.157 V 10.355 l -14.403,-43.11 c -2.468,-7.392 -14.684,-4.857 -22.782,-4.857 -3.338,0 -6.609,0.298 -9.792,0.864 -7.978,-12.932 -22.037,-21.518 -38.048,-21.518 -12.689,0 -24.15,5.395 -32.331,14.068 -6.476,-19.078 -24.145,-32.771 -44.932,-32.771 -21.12,0 -39.023,14.134 -45.234,33.697 -7.409,-6 -16.762,-9.583 -26.931,-9.583 -1.235,0 -2.459,0.054 -3.669,0.157 -6.618,-12.678 -19.644,-21.303 -34.633,-21.303 -10.778,0 -20.54,4.46 -27.637,11.679 -7.286,-4.598 -15.861,-7.252 -25.042,-7.252 -8.722,0 -16.9,2.395 -23.944,6.58 -7.044,-4.185 -15.221,-6.58 -23.945,-6.58 -13.361,0 -25.444,5.623 -34.13,14.683 -7.53,-16.504 -23.851,-27.938 -42.774,-27.938 -17.284,0 -32.396,9.539 -40.623,23.766 -6.498,2.555 -12.294,6.57 -17.007,11.65 -8.703,-7.021 -19.676,-11.211 -31.605,-11.211 -3.186,0 -6.304,0.301 -9.329,0.874 -10.225,-16.027 -47.509,-37.622 -47.92,-26.618 l -4.154,111.313 V 75.49 c 4.685,2.212 9.896,3.448 15.39,3.448 4.061,0 7.967,-0.675 11.622,-1.92 1.906,12.354 8.205,23.206 17.203,30.818 -0.986,2.632 -1.528,5.488 -1.528,8.478 0,13.036 10.292,23.603 22.987,23.603 12.355,0 22.433,-10.009 22.964,-22.563 17.056,-4.98 30.308,-19.239 34.254,-37.125 3.126,1.834 6.47,3.323 9.979,4.417 1.593,17.215 15.711,30.683 32.894,30.683 18.249,0 33.043,-15.191 33.043,-33.933 0,-8.496 -3.042,-16.266 -8.07,-22.218 0.927,-1.892 1.742,-3.852 2.435,-5.869 4.045,1.924 8.55,3 13.302,3 16.232,0 29.612,-12.534 31.462,-28.693 4.832,-1.098 9.389,-2.945 13.55,-5.418 7.044,4.184 15.222,6.58 23.944,6.58 l 0.222,-0.003 c 4.274,17.518 19.707,30.493 38.09,30.493 16.717,0 30.99,-10.725 36.659,-25.839 4.713,1.915 9.829,3.009 15.179,3.113 1.668,24.243 21.347,43.379 45.379,43.379 2.156,0 4.274,-0.156 6.348,-0.455 -0.079,0.961 -0.121,1.932 -0.121,2.914 0,18.742 14.794,33.934 33.045,33.934 18.248,0 33.043,-15.192 33.043,-33.934 0,-2.638 -0.296,-5.207 -0.852,-7.673 6.773,-0.126 13.214,-1.644 19.064,-4.285 -0.011,0.379 -0.014,0.759 -0.014,1.14 0,9.665 2.923,18.626 7.904,26.009 -8.891,5.454 -14.846,15.432 -14.846,26.843 0,17.253 13.622,31.242 30.426,31.242 16.802,0 30.424,-13.989 30.424,-31.242 0,-2.741 -0.342,-5.398 -0.988,-7.931 15.67,-3.063 28.432,-14.561 33.632,-29.717 4.496,-0.192 8.807,-1.098 12.84,-2.609"
             style="fill:#99d5f4;fill-opacity:1;fill-rule:evenodd;stroke:none"
             id="path1350" />
        </g>
        <g
           id="g1352"
           transform="translate(601.4756,131.9619)">
          <path
             d="m 0,0 v -131.962 h -600.174 c -0.034,0.176 -0.07,0.354 -0.102,0.529 -0.198,0.026 -0.392,0.058 -0.589,0.086 V 14.899 c 2.042,0.339 4.145,0.514 6.291,0.514 14.951,0 27.738,-8.537 32.944,-20.613 3.409,0.771 6.97,1.182 10.637,1.182 4.835,0 9.49,-0.713 13.85,-2.027 5.437,16.509 22.069,28.525 41.748,28.525 24.094,0 43.625,-18.013 43.625,-40.232 0,-8.534 -2.884,-16.446 -7.799,-22.959 7.721,-7.021 12.897,-16.419 14.129,-26.907 l 0.283,0.002 c 5.85,0 11.349,-1.383 16.136,-3.81 4.835,23.63 27.332,41.505 54.359,41.505 17.406,0 32.932,-7.415 43.073,-19.003 6.952,12.997 21.464,21.939 38.244,21.939 20.283,0 37.254,-13.065 41.563,-30.567 8.757,9.85 20.222,17.575 33.347,22.2 3.432,16.831 19.453,29.567 38.701,29.567 0.904,0 1.8,-0.03 2.69,-0.086 7.858,9.702 20.408,15.985 34.553,15.985 23.803,0 43.099,-17.795 43.099,-39.748 0,-0.432 -0.008,-0.862 -0.024,-1.293 8.602,3.666 18.184,5.71 28.279,5.71 13.903,0 26.825,-3.879 37.564,-10.52 C -30.499,-18.852 -17.339,-5.125 0,0"
             style="fill:#ffffff;fill-opacity:1;fill-rule:evenodd;stroke:none"
             id="path1354" />
        </g>
      </g>
    </g>
  </g>
</svg>
